<svg data-name="Layer 1" viewBox="0 0 80 80" xmlns="http://www.w3.org/2000/svg"><path d="M11 32v-7a14 14 0 0 1 14-14h7" fill="none" stroke="#ffffff" stroke-linecap="round" stroke-linejoin="round" stroke-width="4px" class="stroke-000000"></path><path d="m26 5 6 6-6 6M69 48v7a14 14 0 0 1-14 14h-7" fill="none" stroke="#ffffff" stroke-linecap="round" stroke-linejoin="round" stroke-width="4px" class="stroke-000000"></path><path d="m54 75-6-6 6-6M31.384 25.113a20 20 0 1 1 23.5 23.5" fill="none" stroke="#ffffff" stroke-linecap="round" stroke-linejoin="round" stroke-width="4px" class="stroke-000000"></path><circle cx="29" cy="51" r="20" fill="none" stroke="#ffffff" stroke-linecap="round" stroke-linejoin="round" stroke-width="4px" class="stroke-000000"></circle><path d="M40.749 60h-23.5a1 1 0 0 1-.862-1.507L28.138 38.52a1 1 0 0 1 1.724 0l11.749 19.973A1 1 0 0 1 40.749 60ZM23.2 56h11.6a.4.4 0 0 0 .345-.6l-5.8-9.866a.4.4 0 0 0-.69 0l-5.8 9.866a.4.4 0 0 0 .345.6Z" fill="#ffffff" class="fill-000000"></path></svg>