
<?xml version="1.0" ?><svg data-name="Your Icons" id="Your_Icons" viewBox="0 0 48 48" xmlns="http://www.w3.org/2000/svg"><title/><path d="M13,33a3,3,0,0,0,3-3V22a3,3,0,0,0-2.94-3A9,9,0,0,1,22,11h4a9,9,0,0,1,8.94,8A3,3,0,0,0,32,22v8a3,3,0,0,0,2.82,3A3,3,0,0,1,32,35H27.82a3,3,0,1,0,0,2H32a5,5,0,0,0,4.94-4.39A5,5,0,0,0,40,28V24a5,5,0,0,0-3-4.59A11,11,0,0,0,26,9H22A11,11,0,0,0,11,19.41,5,5,0,0,0,8,24v4A5,5,0,0,0,13,33Zm12,4a1,1,0,1,1,1-1A1,1,0,0,1,25,37ZM38,24v4a3,3,0,0,1-3,3,1,1,0,0,1-1-1V22a1,1,0,0,1,1-1A3,3,0,0,1,38,24ZM10,24a3,3,0,0,1,3-3,1,1,0,0,1,1,1v8a1,1,0,0,1-1,1,3,3,0,0,1-3-3Z"/></svg>