<svg data-name="Layer 1" viewBox="0 0 80 80" xmlns="http://www.w3.org/2000/svg"><path d="M11 32v-7a14 14 0 0 1 14-14h7" fill="none" stroke="#ffffff" stroke-linecap="round" stroke-linejoin="round" stroke-width="4px" class="stroke-000000"></path><path d="m26 5 6 6-6 6M69 48v7a14 14 0 0 1-14 14h-7" fill="none" stroke="#ffffff" stroke-linecap="round" stroke-linejoin="round" stroke-width="4px" class="stroke-000000"></path><path d="m54 75-6-6 6-6M31.384 25.113a20 20 0 1 1 23.5 23.5" fill="none" stroke="#ffffff" stroke-linecap="round" stroke-linejoin="round" stroke-width="4px" class="stroke-000000"></path><circle cx="29" cy="51" r="20" fill="none" stroke="#ffffff" stroke-linecap="round" stroke-linejoin="round" stroke-width="4px" class="stroke-000000"></circle><path d="M29 50.007a8.021 8.021 0 0 1-5.859-2.554l-5.99-6.444A.6.6 0 0 1 17.59 40h3.21a2 2 0 0 1 1.465.638l3.715 4a4.152 4.152 0 0 0 2.529 1.343 3.979 3.979 0 0 0 3.421-1.251l3.8-4.092A2 2 0 0 1 37.2 40h3.21a.6.6 0 0 1 .439 1.008l-5.99 6.445A8.022 8.022 0 0 1 29 50.007ZM29 51.993a8.021 8.021 0 0 0-5.859 2.554l-5.99 6.444A.6.6 0 0 0 17.59 62h3.21a2 2 0 0 0 1.465-.638l3.715-4a4.152 4.152 0 0 1 2.529-1.343 3.979 3.979 0 0 1 3.421 1.251l3.8 4.092A2 2 0 0 0 37.2 62h3.21a.6.6 0 0 0 .439-1.008l-5.99-6.445A8.022 8.022 0 0 0 29 51.993Z" fill="#ffffff" class="fill-000000"></path></svg>